<?xml version="1.0" encoding="UTF-8" standalone="no"?>
<!-- Created with Inkscape (http://www.inkscape.org/) -->

<svg
   width="58.235615mm"
   height="60.501114mm"
   viewBox="0 0 58.235615 60.501114"
   version="1.1"
   id="svg1"
   inkscape:version="1.4 (1:1.4+202410161351+e7c3feb100)"
   sodipodi:docname="pruning.svg"
   xml:space="preserve"
   inkscape:export-filename="pruning.pdf"
   inkscape:export-xdpi="96"
   inkscape:export-ydpi="96"
   xmlns:inkscape="http://www.inkscape.org/namespaces/inkscape"
   xmlns:sodipodi="http://sodipodi.sourceforge.net/DTD/sodipodi-0.dtd"
   xmlns="http://www.w3.org/2000/svg"
   xmlns:svg="http://www.w3.org/2000/svg"
   xmlns:ns2="http://www.iki.fi/pav/software/textext/"><sodipodi:namedview
     id="namedview1"
     pagecolor="#ffffff"
     bordercolor="#999999"
     borderopacity="1"
     inkscape:showpageshadow="0"
     inkscape:pageopacity="0"
     inkscape:pagecheckerboard="0"
     inkscape:deskcolor="#d1d1d1"
     inkscape:document-units="mm"
     showgrid="true"
     inkscape:zoom="2.26633"
     inkscape:cx="99.941315"
     inkscape:cy="119.35596"
     inkscape:window-width="1854"
     inkscape:window-height="1011"
     inkscape:window-x="66"
     inkscape:window-y="32"
     inkscape:window-maximized="1"
     inkscape:current-layer="layer1"><inkscape:grid
       id="grid1"
       units="mm"
       originx="-120.44488"
       originy="-397.82958"
       spacingx="1"
       spacingy="1"
       empcolor="#0099e5"
       empopacity="0.30196078"
       color="#0099e5"
       opacity="0.14901961"
       empspacing="5"
       dotted="false"
       gridanglex="30"
       gridanglez="30"
       visible="true" /></sodipodi:namedview><defs
     id="defs1"><rect
       x="109.6063"
       y="400.62991"
       width="85.509064"
       height="28.536566"
       id="rect4" /><inkscape:path-effect
       effect="bspline"
       id="path-effect2"
       is_visible="true"
       lpeversion="1.3"
       weight="33.333333"
       steps="2"
       helper_size="0"
       apply_no_weight="true"
       apply_with_weight="true"
       only_selected="false"
       uniform="false" /><inkscape:path-effect
       effect="bspline"
       id="path-effect1"
       is_visible="true"
       lpeversion="1.3"
       weight="33.333333"
       steps="2"
       helper_size="0"
       apply_no_weight="true"
       apply_with_weight="true"
       only_selected="false"
       uniform="false" /><rect
       x="22.677166"
       y="257.00787"
       width="147.40158"
       height="49.133858"
       id="rect32" /><inkscape:path-effect
       effect="bspline"
       id="path-effect32"
       is_visible="true"
       lpeversion="1.3"
       weight="33.333333"
       steps="2"
       helper_size="0"
       apply_no_weight="true"
       apply_with_weight="true"
       only_selected="false"
       uniform="false" /><inkscape:path-effect
       effect="bspline"
       id="path-effect31"
       is_visible="true"
       lpeversion="1.3"
       weight="33.333333"
       steps="2"
       helper_size="0"
       apply_no_weight="true"
       apply_with_weight="true"
       only_selected="false"
       uniform="false" /><inkscape:path-effect
       effect="bspline"
       id="path-effect30"
       is_visible="true"
       lpeversion="1.3"
       weight="33.333333"
       steps="2"
       helper_size="0"
       apply_no_weight="true"
       apply_with_weight="true"
       only_selected="false"
       uniform="false" /><rect
       x="37.795277"
       y="434.64566"
       width="225.69901"
       height="25.87726"
       id="rect26061" /><rect
       x="37.795277"
       y="434.64566"
       width="225.69901"
       height="25.87726"
       id="rect26061-2" /><rect
       x="245.6693"
       y="132.28346"
       width="283.46457"
       height="56.692921"
       id="rect25142" /><rect
       x="256.3609"
       y="603.06787"
       width="365.21088"
       height="41.052761"
       id="rect1" /><rect
       x="146.29385"
       y="259.4834"
       width="109.08244"
       height="54.082382"
       id="rect2" /><rect
       x="548.13568"
       y="296.13962"
       width="137.95644"
       height="38.656113"
       id="rect3" /><rect
       x="80.565361"
       y="508.80301"
       width="168.22029"
       height="97.838913"
       id="rect5" /></defs><g
     inkscape:label="Layer 1"
     inkscape:groupmode="layer"
     id="layer1"
     transform="translate(-31.8677, -105.259)"><rect
       style="fill:none;stroke:#000000;stroke-width:0.315;stroke-dasharray:none;paint-order:stroke fill markers"
       id="rect26"
       width="5.9339623"
       height="45"
       x="84.945824"
       y="107.91255"
       ry="1"
       inkscape:export-filename="pruning.png"
       inkscape:export-xdpi="1000"
       inkscape:export-ydpi="1000"
       rx="1" /><path
       style="fill:none;stroke:#000000;stroke-width:0.264583px;stroke-linecap:butt;stroke-linejoin:miter;stroke-opacity:1"
       d="m 31.999999,165.5004 v -39.00021 l 33.000002,-21.00012 v 36.0002 z"
       id="path29" /><path
       style="fill:none;stroke:#000000;stroke-width:0.264583px;stroke-linecap:butt;stroke-linejoin:miter;stroke-opacity:1"
       d="m 55.000001,48.499825 c 0.161126,4.166725 0.322248,8.333371 1.488937,9.263326 1.166689,0.929956 3.338812,-1.376802 4.924948,-1.543472 1.586135,-0.16667 2.586115,1.806805 3.586115,3.780319"
       id="path30"
       inkscape:path-effect="#path-effect30"
       inkscape:original-d="m 55.000001,48.499825 c 0.161126,4.166725 0.322248,8.333371 0.483377,12.500173 2.172249,-2.306891 4.344372,-4.613649 6.516623,-6.920543 1.000021,1.973554 2,3.947029 3,5.920543"
       sodipodi:nodetypes="cccc"
       transform="translate(0,63.500172)" /><path
       style="fill:none;stroke:#000000;stroke-width:0.264583px;stroke-linecap:butt;stroke-linejoin:miter;stroke-opacity:1"
       d="m 42.137514,55.633502 c 2.287493,0.455498 4.574992,0.910996 6.052079,1.805426 1.477087,0.894429 2.143728,2.22771 3.581498,2.043845 1.43777,-0.183865 3.646543,-1.884888 5.85536,-3.585945"
       id="path31"
       inkscape:path-effect="#path-effect31"
       inkscape:original-d="m 42.137514,55.633502 c 2.287493,0.455497 4.574992,0.910996 6.862485,1.366494 0.666681,1.333361 1.333322,2.666642 2.000002,4.000002 2.20886,-1.70109 4.417633,-3.402113 6.62645,-5.10317"
       sodipodi:nodetypes="cccc"
       transform="translate(-1.1375131,65.366495)" /><path
       style="fill:none;stroke:#000000;stroke-width:0.264583px;stroke-linecap:butt;stroke-linejoin:miter;stroke-opacity:1"
       d="m 57.948941,57.841524 c 0.01702,2.719493 0.03404,5.438983 1.127657,6.37395 1.093618,0.934966 3.263747,0.08544 5.43392,-0.764097"
       id="path32"
       inkscape:path-effect="#path-effect32"
       inkscape:original-d="m 57.948941,57.841524 c 0.01702,2.719493 0.03404,5.438983 0.05106,8.158473 2.170215,-0.849556 4.340344,-1.69908 6.510517,-2.54862"
       transform="translate(0.44126072,63.144667)"
       sodipodi:nodetypes="ccc" /><text
       xml:space="preserve"
       transform="scale(0.26458333)"
       id="text32"
       style="font-size:26.6667px;line-height:1.25;font-family:'CMU Serif';-inkscape-font-specification:'CMU Serif, Normal';white-space:pre;shape-inside:url(#rect32);display:inline" /><path
       style="fill:none;stroke:#000000;stroke-width:0.264583px;stroke-linecap:butt;stroke-linejoin:miter;stroke-opacity:1"
       d="m 32.000001,89.999997 c 2,-0.49159 3.999959,-0.98317 4.999979,0.2719 C 38.000001,91.526967 38,94.528583 38,97.530263"
       id="path1"
       inkscape:path-effect="#path-effect1"
       inkscape:original-d="m 32.000001,89.999997 c 2,-0.49159 3.999959,-0.98317 6,-1.47477 0,3.00174 -10e-7,6.003356 -10e-7,9.005036"
       sodipodi:nodetypes="ccc"
       transform="translate(2.0509018e-5,63.728099)" /><path
       style="fill:none;stroke:#000000;stroke-width:0.264583px;stroke-linecap:butt;stroke-linejoin:miter;stroke-opacity:1"
       d="m 37,89.999996 c 1.333334,-1.824364 2.666641,-3.648689 3.666661,-3.721826 1.00002,-0.07314 1.66666,1.604888 2.583473,2.683758 0.916814,1.07887 2.083714,1.558465 3.250638,2.038069"
       id="path2"
       inkscape:path-effect="#path-effect2"
       inkscape:original-d="m 37,89.999996 c 1.333334,-1.824364 2.666641,-3.648689 4.000001,-5.473088 0.66668,1.678125 1.33332,3.35615 2,5.034276 1.166947,0.479614 2.333847,0.959209 3.500771,1.438813"
       sodipodi:nodetypes="cccc"
       transform="translate(0.08672901,63.999999)" /><path
       style="fill:none;stroke:#000000;stroke-width:0.1;stroke-linecap:butt;stroke-linejoin:miter;stroke-dasharray:none;stroke-opacity:1"
       d="m 63.098504,109.37434 24.148077,3.12185 -27.174091,-1.19618"
       id="path3"
       sodipodi:nodetypes="ccc" /><path
       style="fill:none;stroke:#000000;stroke-width:0.1;stroke-linecap:butt;stroke-linejoin:miter;stroke-dasharray:none;stroke-opacity:1"
       d="m 56.706145,113.44225 30.540436,-0.94606 -24.154041,3.23199"
       id="path4"
       sodipodi:nodetypes="ccc" /><path
       style="fill:none;stroke:#000000;stroke-width:0.1;stroke-linecap:butt;stroke-linejoin:miter;stroke-dasharray:none;stroke-opacity:1"
       d="m 60.442665,117.41448 26.803916,-4.91829 -30.394014,7.20292"
       id="path5"
       sodipodi:nodetypes="ccc" /><path
       style="fill:none;stroke:#000000;stroke-width:0.1;stroke-linecap:butt;stroke-linejoin:miter;stroke-dasharray:none;stroke-opacity:1"
       d="M 38.470834,159.08787 87.42282,117.42941 41.8916,157.08786"
       id="path7"
       sodipodi:nodetypes="ccc" /><path
       style="fill:none;stroke:#000000;stroke-width:0.1;stroke-linecap:butt;stroke-linejoin:miter;stroke-dasharray:none;stroke-opacity:1"
       d="M 38.470834,155.55368 87.42282,117.42941 41.953515,154.08784"
       id="path8"
       sodipodi:nodetypes="ccc" /><g
       transform="matrix(0,-0.529167,0.529167,0,85.703267,152.079)"
       ns2:version="1.10.2"
       ns2:texconverter="pdflatex"
       ns2:pdfconverter="inkscape"
       ns2:text="hidden layer"
       ns2:preamble="/home/inspiron/.config/inkscape/extensions/textext/default_packages.tex"
       ns2:scale="1.5"
       ns2:alignment="middle center"
       ns2:stroke-to-path="0"
       ns2:inkscapeversion="1.3.2"
       id="g8762"
       ns2:jacobian_sqrt="0.529167"><defs
   id="id-3011b30a-ec4d-47b7-9b39-369fc9bb9822">
    <g
   id="id-c70004de-7481-4015-9aeb-c17ce55affbc">
      <symbol
   overflow="visible"
   id="id-a3b56471-121d-4ad9-bea0-1c7b03853407">
        <path
   style="stroke:none"
   d=""
   id="id-24f2d694-341b-45b7-b04f-9a27042fd336" />
      </symbol>
      <symbol
   overflow="visible"
   id="id-b03483d5-fe78-4ea1-8ae5-25a26e6a447a">
        <path
   style="stroke:none"
   d="m 1.09375,-0.75 c 0,0.4375 -0.109375,0.4375 -0.78125,0.4375 V 0 c 0.359375,-0.015625 0.859375,-0.03125 1.140625,-0.03125 0.25,0 0.765625,0.015625 1.109375,0.03125 v -0.3125 c -0.671875,0 -0.78125,0 -0.78125,-0.4375 V -2.59375 C 1.78125,-3.625 2.5,-4.1875 3.125,-4.1875 c 0.640625,0 0.75,0.53125 0.75,1.109375 V -0.75 c 0,0.4375 -0.109375,0.4375 -0.78125,0.4375 V 0 c 0.34375,-0.015625 0.859375,-0.03125 1.125,-0.03125 0.25,0 0.78125,0.015625 1.109375,0.03125 v -0.3125 c -0.515625,0 -0.765625,0 -0.765625,-0.296875 v -1.90625 c 0,-0.859375 0,-1.15625 -0.3125,-1.515625 -0.140625,-0.171875 -0.46875,-0.375 -1.046875,-0.375 -0.84375,0 -1.28125,0.59375 -1.453125,0.984375 v -3.5 L 0.3125,-6.8125 V -6.5 c 0.703125,0 0.78125,0.0625 0.78125,0.5625 z m 0,0"
   id="id-0274f01d-6cb0-4fab-a0d2-582f92598d06" />
      </symbol>
      <symbol
   overflow="visible"
   id="id-5d14577a-f460-4309-9dcd-a9a703bf0ece">
        <path
   style="stroke:none"
   d="M 1.765625,-4.40625 0.375,-4.296875 v 0.3125 c 0.640625,0 0.734375,0.0625 0.734375,0.546875 V -0.75 c 0,0.4375 -0.109375,0.4375 -0.78125,0.4375 V 0 C 0.640625,-0.015625 1.1875,-0.03125 1.421875,-0.03125 1.78125,-0.03125 2.125,-0.015625 2.46875,0 v -0.3125 c -0.671875,0 -0.703125,-0.046875 -0.703125,-0.4375 z m 0.03125,-1.734375 c 0,-0.3125 -0.234375,-0.53125 -0.515625,-0.53125 -0.3125,0 -0.53125,0.265625 -0.53125,0.53125 0,0.265625 0.21875,0.53125 0.53125,0.53125 0.28125,0 0.515625,-0.21875 0.515625,-0.53125 z m 0,0"
   id="id-c7f55b62-c253-4fae-886a-613c824a67df" />
      </symbol>
      <symbol
   overflow="visible"
   id="id-ce3ee858-2486-43e8-92a9-9b81aa64eaba">
        <path
   style="stroke:none"
   d="m 3.78125,-0.546875 v 0.65625 L 5.25,0 v -0.3125 c -0.6875,0 -0.78125,-0.0625 -0.78125,-0.5625 V -6.921875 L 3.046875,-6.8125 V -6.5 c 0.6875,0 0.765625,0.0625 0.765625,0.5625 v 2.15625 c -0.28125,-0.359375 -0.71875,-0.625 -1.25,-0.625 -1.171875,0 -2.21875,0.984375 -2.21875,2.265625 0,1.265625 0.96875,2.25 2.109375,2.25 0.640625,0 1.078125,-0.34375 1.328125,-0.65625 z m 0,-2.671875 v 2.046875 c 0,0.171875 0,0.1875 -0.109375,0.359375 C 3.375,-0.328125 2.9375,-0.109375 2.5,-0.109375 2.046875,-0.109375 1.6875,-0.375 1.453125,-0.75 1.203125,-1.15625 1.171875,-1.71875 1.171875,-2.140625 1.171875,-2.5 1.1875,-3.09375 1.46875,-3.546875 1.6875,-3.859375 2.0625,-4.1875 2.609375,-4.1875 c 0.34375,0 0.765625,0.15625 1.0625,0.59375 0.109375,0.171875 0.109375,0.1875 0.109375,0.375 z m 0,0"
   id="id-9032b155-322d-4302-a74e-07d2842b146c" />
      </symbol>
      <symbol
   overflow="visible"
   id="id-b7ae74b9-15a9-45cf-9da8-70d364d56e07">
        <path
   style="stroke:none"
   d="M 1.109375,-2.515625 C 1.171875,-4 2.015625,-4.25 2.359375,-4.25 c 1.015625,0 1.125,1.34375 1.125,1.734375 z m 0,0.21875 h 2.78125 c 0.21875,0 0.25,0 0.25,-0.21875 0,-0.984375 -0.546875,-1.953125 -1.78125,-1.953125 -1.15625,0 -2.078125,1.03125 -2.078125,2.28125 0,1.328125 1.046875,2.296875 2.1875,2.296875 C 3.6875,0.109375 4.140625,-1 4.140625,-1.1875 4.140625,-1.28125 4.0625,-1.3125 4,-1.3125 c -0.078125,0 -0.109375,0.0625 -0.125,0.140625 -0.34375,1.03125 -1.25,1.03125 -1.34375,1.03125 -0.5,0 -0.890625,-0.296875 -1.125,-0.671875 -0.296875,-0.46875 -0.296875,-1.125 -0.296875,-1.484375 z m 0,0"
   id="id-30a39d30-a805-46cc-b772-234a2a5dadaf" />
      </symbol>
      <symbol
   overflow="visible"
   id="id-d3294a00-e90b-41b1-82a2-da2005de2f60">
        <path
   style="stroke:none"
   d="M 1.09375,-3.421875 V -0.75 c 0,0.4375 -0.109375,0.4375 -0.78125,0.4375 V 0 c 0.359375,-0.015625 0.859375,-0.03125 1.140625,-0.03125 0.25,0 0.765625,0.015625 1.109375,0.03125 v -0.3125 c -0.671875,0 -0.78125,0 -0.78125,-0.4375 V -2.59375 C 1.78125,-3.625 2.5,-4.1875 3.125,-4.1875 c 0.640625,0 0.75,0.53125 0.75,1.109375 V -0.75 c 0,0.4375 -0.109375,0.4375 -0.78125,0.4375 V 0 c 0.34375,-0.015625 0.859375,-0.03125 1.125,-0.03125 0.25,0 0.78125,0.015625 1.109375,0.03125 v -0.3125 c -0.515625,0 -0.765625,0 -0.765625,-0.296875 v -1.90625 c 0,-0.859375 0,-1.15625 -0.3125,-1.515625 -0.140625,-0.171875 -0.46875,-0.375 -1.046875,-0.375 C 2.46875,-4.40625 2,-3.984375 1.71875,-3.359375 V -4.40625 L 0.3125,-4.296875 v 0.3125 c 0.703125,0 0.78125,0.0625 0.78125,0.5625 z m 0,0"
   id="id-4e899b6d-27c2-4627-9d7f-578dafa2bde2" />
      </symbol>
      <symbol
   overflow="visible"
   id="id-fa28087a-b95a-43ed-9f76-07618633e389">
        <path
   style="stroke:none"
   d="M 1.765625,-6.921875 0.328125,-6.8125 V -6.5 c 0.703125,0 0.78125,0.0625 0.78125,0.5625 V -0.75 c 0,0.4375 -0.109375,0.4375 -0.78125,0.4375 V 0 C 0.65625,-0.015625 1.1875,-0.03125 1.4375,-0.03125 c 0.25,0 0.734375,0.015625 1.109375,0.03125 v -0.3125 c -0.671875,0 -0.78125,0 -0.78125,-0.4375 z m 0,0"
   id="id-c9808160-fb61-4f5b-aac2-9484b93c6604" />
      </symbol>
      <symbol
   overflow="visible"
   id="id-17629da9-8406-4940-b0f7-84d6d5629bf1">
        <path
   style="stroke:none"
   d="m 3.3125,-0.75 c 0.046875,0.390625 0.3125,0.8125 0.78125,0.8125 0.21875,0 0.828125,-0.140625 0.828125,-0.953125 v -0.5625 h -0.25 v 0.5625 c 0,0.578125 -0.25,0.640625 -0.359375,0.640625 -0.328125,0 -0.375,-0.453125 -0.375,-0.5 v -1.984375 c 0,-0.421875 0,-0.8125 -0.359375,-1.1875 C 3.1875,-4.3125 2.6875,-4.46875 2.21875,-4.46875 c -0.828125,0 -1.515625,0.46875 -1.515625,1.125 0,0.296875 0.203125,0.46875 0.46875,0.46875 0.28125,0 0.453125,-0.203125 0.453125,-0.453125 0,-0.125 -0.046875,-0.453125 -0.515625,-0.453125 C 1.390625,-4.140625 1.875,-4.25 2.1875,-4.25 c 0.5,0 1.0625,0.390625 1.0625,1.28125 v 0.359375 c -0.515625,0.03125 -1.203125,0.0625 -1.828125,0.359375 -0.75,0.34375 -1,0.859375 -1,1.296875 0,0.8125 0.96875,1.0625 1.59375,1.0625 0.65625,0 1.109375,-0.40625 1.296875,-0.859375 z M 3.25,-2.390625 v 1 c 0,0.9375 -0.71875,1.28125 -1.171875,1.28125 -0.484375,0 -0.890625,-0.34375 -0.890625,-0.84375 0,-0.546875 0.421875,-1.375 2.0625,-1.4375 z m 0,0"
   id="id-47064e1b-bdae-46ec-96f4-6c3675039953" />
      </symbol>
      <symbol
   overflow="visible"
   id="id-e27d1504-3f76-45b3-bcce-3e173a5503b2">
        <path
   style="stroke:none"
   d="m 4.140625,-3.34375 c 0.25,-0.640625 0.765625,-0.640625 0.921875,-0.640625 v -0.3125 c -0.234375,0.015625 -0.515625,0.03125 -0.75,0.03125 -0.171875,0 -0.640625,-0.015625 -0.859375,-0.03125 v 0.3125 c 0.3125,0 0.46875,0.171875 0.46875,0.421875 0,0.109375 -0.015625,0.125 -0.0625,0.25 L 2.84375,-0.875 1.75,-3.546875 C 1.703125,-3.65625 1.6875,-3.6875 1.6875,-3.734375 c 0,-0.25 0.359375,-0.25 0.5625,-0.25 v -0.3125 c -0.265625,0.015625 -0.921875,0.03125 -1.09375,0.03125 -0.265625,0 -0.671875,-0.015625 -0.96875,-0.03125 v 0.3125 c 0.484375,0 0.671875,0 0.8125,0.34375 L 2.5,0 C 2.4375,0.125 2.296875,0.453125 2.25,0.59375 2.03125,1.140625 1.75,1.828125 1.109375,1.828125 c -0.046875,0 -0.28125,0 -0.46875,-0.1875 0.3125,-0.03125 0.390625,-0.25 0.390625,-0.421875 0,-0.25 -0.1875,-0.40625 -0.421875,-0.40625 -0.203125,0 -0.421875,0.125 -0.421875,0.421875 0,0.453125 0.421875,0.8125 0.921875,0.8125 0.625,0 1.03125,-0.578125 1.265625,-1.140625 z m 0,0"
   id="id-89cdd0db-4502-445a-91f2-7c28ea4ff059" />
      </symbol>
      <symbol
   overflow="visible"
   id="id-a5ce8f57-70f6-4c51-bc71-a50f05c7979c">
        <path
   style="stroke:none"
   d="M 1.671875,-3.3125 V -4.40625 L 0.28125,-4.296875 v 0.3125 c 0.703125,0 0.78125,0.0625 0.78125,0.5625 V -0.75 c 0,0.4375 -0.109375,0.4375 -0.78125,0.4375 V 0 c 0.390625,-0.015625 0.859375,-0.03125 1.140625,-0.03125 0.390625,0 0.859375,0 1.265625,0.03125 V -0.3125 H 2.46875 c -0.734375,0 -0.75,-0.109375 -0.75,-0.46875 V -2.3125 c 0,-0.984375 0.421875,-1.875 1.171875,-1.875 0.0625,0 0.09375,0 0.109375,0.015625 -0.03125,0 -0.234375,0.125 -0.234375,0.390625 0,0.265625 0.21875,0.421875 0.4375,0.421875 0.171875,0 0.421875,-0.125 0.421875,-0.4375 0,-0.3125 -0.3125,-0.609375 -0.734375,-0.609375 -0.734375,0 -1.09375,0.671875 -1.21875,1.09375 z m 0,0"
   id="id-232ba6e6-b443-4f0f-befd-c056bd785465" />
      </symbol>
    </g>
  </defs>
  <g
   id="id-02a6d48f-632a-4478-9032-4cf150c316f3"
   transform="translate(-149.025,-127.843)">
    <g
   style="fill:#000000;fill-opacity:1"
   id="id-c3ab610f-c2ce-44f1-aa2e-345d017aa63d">
      <g
   transform="translate(148.712,134.765)"
   id="g2266"><path
   style="stroke:none"
   d="m 1.09375,-0.75 c 0,0.4375 -0.109375,0.4375 -0.78125,0.4375 V 0 c 0.359375,-0.015625 0.859375,-0.03125 1.140625,-0.03125 0.25,0 0.765625,0.015625 1.109375,0.03125 v -0.3125 c -0.671875,0 -0.78125,0 -0.78125,-0.4375 V -2.59375 C 1.78125,-3.625 2.5,-4.1875 3.125,-4.1875 c 0.640625,0 0.75,0.53125 0.75,1.109375 V -0.75 c 0,0.4375 -0.109375,0.4375 -0.78125,0.4375 V 0 c 0.34375,-0.015625 0.859375,-0.03125 1.125,-0.03125 0.25,0 0.78125,0.015625 1.109375,0.03125 v -0.3125 c -0.515625,0 -0.765625,0 -0.765625,-0.296875 v -1.90625 c 0,-0.859375 0,-1.15625 -0.3125,-1.515625 -0.140625,-0.171875 -0.46875,-0.375 -1.046875,-0.375 -0.84375,0 -1.28125,0.59375 -1.453125,0.984375 v -3.5 L 0.3125,-6.8125 V -6.5 c 0.703125,0 0.78125,0.0625 0.78125,0.5625 z m 0,0"
   id="id-e2c62579-d13c-4cd7-8c4b-79775196399b" />
      </g><g
   transform="translate(154.247,134.765)"
   id="g7331"><path
   style="stroke:none"
   d="M 1.765625,-4.40625 0.375,-4.296875 v 0.3125 c 0.640625,0 0.734375,0.0625 0.734375,0.546875 V -0.75 c 0,0.4375 -0.109375,0.4375 -0.78125,0.4375 V 0 C 0.640625,-0.015625 1.1875,-0.03125 1.421875,-0.03125 1.78125,-0.03125 2.125,-0.015625 2.46875,0 v -0.3125 c -0.671875,0 -0.703125,-0.046875 -0.703125,-0.4375 z m 0.03125,-1.734375 c 0,-0.3125 -0.234375,-0.53125 -0.515625,-0.53125 -0.3125,0 -0.53125,0.265625 -0.53125,0.53125 0,0.265625 0.21875,0.53125 0.53125,0.53125 0.28125,0 0.515625,-0.21875 0.515625,-0.53125 z m 0,0"
   id="id-bf034add-4fb1-4fd4-8042-325c41428d24" />
      </g><g
   transform="translate(157.015,134.765)"
   id="g8603"><path
   style="stroke:none"
   d="m 3.78125,-0.546875 v 0.65625 L 5.25,0 v -0.3125 c -0.6875,0 -0.78125,-0.0625 -0.78125,-0.5625 V -6.921875 L 3.046875,-6.8125 V -6.5 c 0.6875,0 0.765625,0.0625 0.765625,0.5625 v 2.15625 c -0.28125,-0.359375 -0.71875,-0.625 -1.25,-0.625 -1.171875,0 -2.21875,0.984375 -2.21875,2.265625 0,1.265625 0.96875,2.25 2.109375,2.25 0.640625,0 1.078125,-0.34375 1.328125,-0.65625 z m 0,-2.671875 v 2.046875 c 0,0.171875 0,0.1875 -0.109375,0.359375 C 3.375,-0.328125 2.9375,-0.109375 2.5,-0.109375 2.046875,-0.109375 1.6875,-0.375 1.453125,-0.75 1.203125,-1.15625 1.171875,-1.71875 1.171875,-2.140625 1.171875,-2.5 1.1875,-3.09375 1.46875,-3.546875 1.6875,-3.859375 2.0625,-4.1875 2.609375,-4.1875 c 0.34375,0 0.765625,0.15625 1.0625,0.59375 0.109375,0.171875 0.109375,0.1875 0.109375,0.375 z m 0,0"
   id="id-3c5c9bcb-1f04-4e9a-a207-466681990b18" />
      </g><g
   transform="translate(162.55,134.765)"
   id="g523"><path
   style="stroke:none"
   d="m 3.78125,-0.546875 v 0.65625 L 5.25,0 v -0.3125 c -0.6875,0 -0.78125,-0.0625 -0.78125,-0.5625 V -6.921875 L 3.046875,-6.8125 V -6.5 c 0.6875,0 0.765625,0.0625 0.765625,0.5625 v 2.15625 c -0.28125,-0.359375 -0.71875,-0.625 -1.25,-0.625 -1.171875,0 -2.21875,0.984375 -2.21875,2.265625 0,1.265625 0.96875,2.25 2.109375,2.25 0.640625,0 1.078125,-0.34375 1.328125,-0.65625 z m 0,-2.671875 v 2.046875 c 0,0.171875 0,0.1875 -0.109375,0.359375 C 3.375,-0.328125 2.9375,-0.109375 2.5,-0.109375 2.046875,-0.109375 1.6875,-0.375 1.453125,-0.75 1.203125,-1.15625 1.171875,-1.71875 1.171875,-2.140625 1.171875,-2.5 1.1875,-3.09375 1.46875,-3.546875 1.6875,-3.859375 2.0625,-4.1875 2.609375,-4.1875 c 0.34375,0 0.765625,0.15625 1.0625,0.59375 0.109375,0.171875 0.109375,0.1875 0.109375,0.375 z m 0,0"
   id="id-22b710a9-3cb9-4f3e-902d-6d630ec0e62b" />
      </g><g
   transform="translate(168.085,134.765)"
   id="g3292"><path
   style="stroke:none"
   d="M 1.109375,-2.515625 C 1.171875,-4 2.015625,-4.25 2.359375,-4.25 c 1.015625,0 1.125,1.34375 1.125,1.734375 z m 0,0.21875 h 2.78125 c 0.21875,0 0.25,0 0.25,-0.21875 0,-0.984375 -0.546875,-1.953125 -1.78125,-1.953125 -1.15625,0 -2.078125,1.03125 -2.078125,2.28125 0,1.328125 1.046875,2.296875 2.1875,2.296875 C 3.6875,0.109375 4.140625,-1 4.140625,-1.1875 4.140625,-1.28125 4.0625,-1.3125 4,-1.3125 c -0.078125,0 -0.109375,0.0625 -0.125,0.140625 -0.34375,1.03125 -1.25,1.03125 -1.34375,1.03125 -0.5,0 -0.890625,-0.296875 -1.125,-0.671875 -0.296875,-0.46875 -0.296875,-1.125 -0.296875,-1.484375 z m 0,0"
   id="id-8fc761a2-1b0d-41a4-bcc8-eb615310fcbd" />
      </g><g
   transform="translate(172.513,134.765)"
   id="g1027"><path
   style="stroke:none"
   d="M 1.09375,-3.421875 V -0.75 c 0,0.4375 -0.109375,0.4375 -0.78125,0.4375 V 0 c 0.359375,-0.015625 0.859375,-0.03125 1.140625,-0.03125 0.25,0 0.765625,0.015625 1.109375,0.03125 v -0.3125 c -0.671875,0 -0.78125,0 -0.78125,-0.4375 V -2.59375 C 1.78125,-3.625 2.5,-4.1875 3.125,-4.1875 c 0.640625,0 0.75,0.53125 0.75,1.109375 V -0.75 c 0,0.4375 -0.109375,0.4375 -0.78125,0.4375 V 0 c 0.34375,-0.015625 0.859375,-0.03125 1.125,-0.03125 0.25,0 0.78125,0.015625 1.109375,0.03125 v -0.3125 c -0.515625,0 -0.765625,0 -0.765625,-0.296875 v -1.90625 c 0,-0.859375 0,-1.15625 -0.3125,-1.515625 -0.140625,-0.171875 -0.46875,-0.375 -1.046875,-0.375 C 2.46875,-4.40625 2,-3.984375 1.71875,-3.359375 V -4.40625 L 0.3125,-4.296875 v 0.3125 c 0.703125,0 0.78125,0.0625 0.78125,0.5625 z m 0,0"
   id="id-855da90f-bb87-4100-9df2-8d340dd191c0" />
      </g></g>
    <g
   style="fill:#000000;fill-opacity:1"
   id="id-fd51dbc3-6e2b-4fbc-bdd1-9f974ad9c2aa">
      <g
   transform="translate(181.365,134.765)"
   id="g2052"><path
   style="stroke:none"
   d="M 1.765625,-6.921875 0.328125,-6.8125 V -6.5 c 0.703125,0 0.78125,0.0625 0.78125,0.5625 V -0.75 c 0,0.4375 -0.109375,0.4375 -0.78125,0.4375 V 0 C 0.65625,-0.015625 1.1875,-0.03125 1.4375,-0.03125 c 0.25,0 0.734375,0.015625 1.109375,0.03125 v -0.3125 c -0.671875,0 -0.78125,0 -0.78125,-0.4375 z m 0,0"
   id="id-ce9fb7c5-58e3-4ff5-8e2e-51635e7c971b" />
      </g><g
   transform="translate(184.133,134.765)"
   id="g5780"><path
   style="stroke:none"
   d="m 3.3125,-0.75 c 0.046875,0.390625 0.3125,0.8125 0.78125,0.8125 0.21875,0 0.828125,-0.140625 0.828125,-0.953125 v -0.5625 h -0.25 v 0.5625 c 0,0.578125 -0.25,0.640625 -0.359375,0.640625 -0.328125,0 -0.375,-0.453125 -0.375,-0.5 v -1.984375 c 0,-0.421875 0,-0.8125 -0.359375,-1.1875 C 3.1875,-4.3125 2.6875,-4.46875 2.21875,-4.46875 c -0.828125,0 -1.515625,0.46875 -1.515625,1.125 0,0.296875 0.203125,0.46875 0.46875,0.46875 0.28125,0 0.453125,-0.203125 0.453125,-0.453125 0,-0.125 -0.046875,-0.453125 -0.515625,-0.453125 C 1.390625,-4.140625 1.875,-4.25 2.1875,-4.25 c 0.5,0 1.0625,0.390625 1.0625,1.28125 v 0.359375 c -0.515625,0.03125 -1.203125,0.0625 -1.828125,0.359375 -0.75,0.34375 -1,0.859375 -1,1.296875 0,0.8125 0.96875,1.0625 1.59375,1.0625 0.65625,0 1.109375,-0.40625 1.296875,-0.859375 z M 3.25,-2.390625 v 1 c 0,0.9375 -0.71875,1.28125 -1.171875,1.28125 -0.484375,0 -0.890625,-0.34375 -0.890625,-0.84375 0,-0.546875 0.421875,-1.375 2.0625,-1.4375 z m 0,0"
   id="id-8e7ab9ba-2c29-4754-bc34-33c91673ba0a" />
      </g></g>
    <g
   style="fill:#000000;fill-opacity:1"
   id="id-49dbe4cf-c49a-4889-bc6c-83853ad302dd">
      <g
   transform="translate(188.835,134.765)"
   id="g4689"><path
   style="stroke:none"
   d="m 4.140625,-3.34375 c 0.25,-0.640625 0.765625,-0.640625 0.921875,-0.640625 v -0.3125 c -0.234375,0.015625 -0.515625,0.03125 -0.75,0.03125 -0.171875,0 -0.640625,-0.015625 -0.859375,-0.03125 v 0.3125 c 0.3125,0 0.46875,0.171875 0.46875,0.421875 0,0.109375 -0.015625,0.125 -0.0625,0.25 L 2.84375,-0.875 1.75,-3.546875 C 1.703125,-3.65625 1.6875,-3.6875 1.6875,-3.734375 c 0,-0.25 0.359375,-0.25 0.5625,-0.25 v -0.3125 c -0.265625,0.015625 -0.921875,0.03125 -1.09375,0.03125 -0.265625,0 -0.671875,-0.015625 -0.96875,-0.03125 v 0.3125 c 0.484375,0 0.671875,0 0.8125,0.34375 L 2.5,0 C 2.4375,0.125 2.296875,0.453125 2.25,0.59375 2.03125,1.140625 1.75,1.828125 1.109375,1.828125 c -0.046875,0 -0.28125,0 -0.46875,-0.1875 0.3125,-0.03125 0.390625,-0.25 0.390625,-0.421875 0,-0.25 -0.1875,-0.40625 -0.421875,-0.40625 -0.203125,0 -0.421875,0.125 -0.421875,0.421875 0,0.453125 0.421875,0.8125 0.921875,0.8125 0.625,0 1.03125,-0.578125 1.265625,-1.140625 z m 0,0"
   id="id-c5b1437f-600c-4821-8605-d99880672983" />
      </g></g>
    <g
   style="fill:#000000;fill-opacity:1"
   id="id-0fa86c87-ed99-4ff5-bce5-4eeb2ea7a40d">
      <g
   transform="translate(193.825,134.765)"
   id="g6563"><path
   style="stroke:none"
   d="M 1.109375,-2.515625 C 1.171875,-4 2.015625,-4.25 2.359375,-4.25 c 1.015625,0 1.125,1.34375 1.125,1.734375 z m 0,0.21875 h 2.78125 c 0.21875,0 0.25,0 0.25,-0.21875 0,-0.984375 -0.546875,-1.953125 -1.78125,-1.953125 -1.15625,0 -2.078125,1.03125 -2.078125,2.28125 0,1.328125 1.046875,2.296875 2.1875,2.296875 C 3.6875,0.109375 4.140625,-1 4.140625,-1.1875 4.140625,-1.28125 4.0625,-1.3125 4,-1.3125 c -0.078125,0 -0.109375,0.0625 -0.125,0.140625 -0.34375,1.03125 -1.25,1.03125 -1.34375,1.03125 -0.5,0 -0.890625,-0.296875 -1.125,-0.671875 -0.296875,-0.46875 -0.296875,-1.125 -0.296875,-1.484375 z m 0,0"
   id="id-c05ad936-4cca-4a3a-bc94-e58da92cc853" />
      </g><g
   transform="translate(198.252,134.765)"
   id="g4399"><path
   style="stroke:none"
   d="M 1.671875,-3.3125 V -4.40625 L 0.28125,-4.296875 v 0.3125 c 0.703125,0 0.78125,0.0625 0.78125,0.5625 V -0.75 c 0,0.4375 -0.109375,0.4375 -0.78125,0.4375 V 0 c 0.390625,-0.015625 0.859375,-0.03125 1.140625,-0.03125 0.390625,0 0.859375,0 1.265625,0.03125 V -0.3125 H 2.46875 c -0.734375,0 -0.75,-0.109375 -0.75,-0.46875 V -2.3125 c 0,-0.984375 0.421875,-1.875 1.171875,-1.875 0.0625,0 0.09375,0 0.109375,0.015625 -0.03125,0 -0.234375,0.125 -0.234375,0.390625 0,0.265625 0.21875,0.421875 0.4375,0.421875 0.171875,0 0.421875,-0.125 0.421875,-0.4375 0,-0.3125 -0.3125,-0.609375 -0.734375,-0.609375 -0.734375,0 -1.09375,0.671875 -1.21875,1.09375 z m 0,0"
   id="id-54fe3967-1293-47f1-b84f-2ba46a84b623" />
      </g></g>
  </g>
</g><g
       transform="matrix(0.529167,0,0,0.529167,47.87503,118.02541)"
       ns2:version="1.10.2"
       ns2:texconverter="pdflatex"
       ns2:pdfconverter="inkscape"
       ns2:text="$\\varpi_k$"
       ns2:preamble="/home/inspiron/.config/inkscape/extensions/textext/default_packages.tex"
       ns2:scale="1.5"
       ns2:alignment="middle center"
       ns2:stroke-to-path="0"
       ns2:inkscapeversion="1.3.2"
       id="g5731"
       ns2:jacobian_sqrt="0.529167"><defs
   id="id-d22ef88a-b733-4bb0-941d-41305075484a">
    <g
   id="id-6e9b5543-257e-409b-83fc-eab6a56513ce">
      <symbol
   overflow="visible"
   id="id-13667f0d-6420-4647-9d1a-db47f8126a87">
        <path
   style="stroke:none"
   d=""
   id="id-0caa772a-24fe-458d-9803-1314e6b589d6" />
      </symbol>
      <symbol
   overflow="visible"
   id="id-02ce912b-4577-4384-a637-321c3ae6015d">
        <path
   style="stroke:none"
   d="m 1.90625,-4.296875 c -0.21875,0 -0.59375,0 -1.03125,0.46875 -0.34375,0.390625 -0.609375,0.84375 -0.609375,0.890625 0,0.015625 0,0.109375 0.125,0.109375 0.078125,0 0.09375,-0.03125 0.15625,-0.125 C 0.703125,-3.1875 0.875,-3.390625 1.140625,-3.53125 1.421875,-3.71875 1.53125,-3.71875 2.15625,-3.71875 1.59375,-3.015625 1.125,-2.125 1.125,-1.046875 c 0,0.515625 0.140625,1.15625 0.875,1.15625 0.96875,0 1.671875,-0.796875 2.140625,-1.640625 L 4.15625,-1.515625 C 4.140625,-1.453125 4.140625,-1.34375 4.140625,-1.25 c 0,0.703125 0.234375,1.359375 1.046875,1.359375 1.453125,0 2.34375,-2.109375 2.34375,-3.09375 0,-0.25 -0.046875,-0.5 -0.109375,-0.734375 0.171875,0 0.4375,0 0.5,-0.015625 C 8,-3.78125 8.140625,-3.890625 8.140625,-4.0625 8.140625,-4.296875 7.9375,-4.296875 7.75,-4.296875 Z m 5.25,0.578125 c 0.078125,0.234375 0.125,0.578125 0.125,0.734375 0,1.046875 -0.875,2.515625 -2,2.515625 -0.609375,0 -0.8125,-0.46875 -0.8125,-1.15625 0,-0.125 0,-0.484375 0.125,-1.015625 0.046875,-0.15625 0.046875,-0.1875 0.046875,-0.1875 0,-0.109375 -0.109375,-0.109375 -0.125,-0.109375 -0.078125,0 -0.109375,0.03125 -0.125,0.109375 -0.5625,1.859375 -1.671875,2.359375 -2.28125,2.359375 -0.46875,0 -0.6875,-0.3125 -0.6875,-0.90625 0,-0.8125 0.46875,-1.640625 1.046875,-2.34375 z m 0,0"
   id="id-8978a4b3-de2d-45f8-8a77-679a4156e050" />
      </symbol>
      <symbol
   overflow="visible"
   id="id-1c4e09e9-6d18-40d2-bfa9-f6fdbe77f21c">
        <path
   style="stroke:none"
   d=""
   id="id-c4e36e54-7af9-4ba4-aa78-29175a58864b" />
      </symbol>
      <symbol
   overflow="visible"
   id="id-00ed80a6-c064-4bdd-904a-13877021c8a2">
        <path
   style="stroke:none"
   d="m 2.1875,-4.625 c 0,-0.015625 0.015625,-0.109375 0.015625,-0.109375 0,-0.046875 -0.015625,-0.109375 -0.109375,-0.109375 -0.140625,0 -0.71875,0.0625 -0.890625,0.078125 -0.046875,0 -0.15625,0.015625 -0.15625,0.15625 0,0.09375 0.109375,0.09375 0.1875,0.09375 0.328125,0 0.328125,0.0625 0.328125,0.109375 0,0.046875 -0.015625,0.09375 -0.015625,0.15625 L 0.5625,-0.3125 c -0.046875,0.125 -0.046875,0.140625 -0.046875,0.15625 0,0.109375 0.09375,0.21875 0.25,0.21875 0.1875,0 0.265625,-0.125 0.3125,-0.28125 0.015625,-0.03125 0.3125,-1.265625 0.34375,-1.359375 0.5,0.046875 0.890625,0.21875 0.890625,0.578125 0,0.03125 0,0.0625 -0.015625,0.140625 -0.03125,0.09375 -0.03125,0.140625 -0.03125,0.21875 0,0.484375 0.40625,0.703125 0.75,0.703125 0.671875,0 0.875,-1.046875 0.875,-1.0625 0,-0.09375 -0.078125,-0.09375 -0.109375,-0.09375 -0.09375,0 -0.109375,0.046875 -0.140625,0.171875 C 3.5625,-0.625 3.375,-0.125 3.03125,-0.125 c -0.1875,0 -0.25,-0.171875 -0.25,-0.359375 0,-0.125 0,-0.140625 0.046875,-0.3125 0.015625,-0.03125 0.03125,-0.140625 0.03125,-0.21875 0,-0.625 -0.828125,-0.71875 -1.125,-0.734375 C 1.9375,-1.875 2.1875,-2.109375 2.3125,-2.21875 2.671875,-2.546875 3.015625,-2.875 3.40625,-2.875 c 0.078125,0 0.171875,0.015625 0.234375,0.09375 C 3.34375,-2.734375 3.28125,-2.5 3.28125,-2.390625 c 0,0.140625 0.109375,0.25 0.265625,0.25 0.203125,0 0.40625,-0.15625 0.40625,-0.4375 0,-0.234375 -0.171875,-0.5 -0.53125,-0.5 -0.40625,0 -0.765625,0.296875 -1.125,0.625 C 2,-2.1875 1.78125,-1.96875 1.484375,-1.84375 Z m 0,0"
   id="id-49212e82-bb75-4333-8089-3370d82bb66c" />
      </symbol>
    </g>
  </defs>
  <g
   id="id-04907683-ef67-4ad7-a49c-bba6887f5c9d"
   transform="translate(-148.978,-130.468)">
    <g
   style="fill:#000000;fill-opacity:1"
   id="id-a33d1291-0e82-4863-8dc9-95ba91c283ad">
      <g
   transform="translate(148.712,134.765)"
   id="g1426"><path
   style="stroke:none"
   d="m 1.90625,-4.296875 c -0.21875,0 -0.59375,0 -1.03125,0.46875 -0.34375,0.390625 -0.609375,0.84375 -0.609375,0.890625 0,0.015625 0,0.109375 0.125,0.109375 0.078125,0 0.09375,-0.03125 0.15625,-0.125 C 0.703125,-3.1875 0.875,-3.390625 1.140625,-3.53125 1.421875,-3.71875 1.53125,-3.71875 2.15625,-3.71875 1.59375,-3.015625 1.125,-2.125 1.125,-1.046875 c 0,0.515625 0.140625,1.15625 0.875,1.15625 0.96875,0 1.671875,-0.796875 2.140625,-1.640625 L 4.15625,-1.515625 C 4.140625,-1.453125 4.140625,-1.34375 4.140625,-1.25 c 0,0.703125 0.234375,1.359375 1.046875,1.359375 1.453125,0 2.34375,-2.109375 2.34375,-3.09375 0,-0.25 -0.046875,-0.5 -0.109375,-0.734375 0.171875,0 0.4375,0 0.5,-0.015625 C 8,-3.78125 8.140625,-3.890625 8.140625,-4.0625 8.140625,-4.296875 7.9375,-4.296875 7.75,-4.296875 Z m 5.25,0.578125 c 0.078125,0.234375 0.125,0.578125 0.125,0.734375 0,1.046875 -0.875,2.515625 -2,2.515625 -0.609375,0 -0.8125,-0.46875 -0.8125,-1.15625 0,-0.125 0,-0.484375 0.125,-1.015625 0.046875,-0.15625 0.046875,-0.1875 0.046875,-0.1875 0,-0.109375 -0.109375,-0.109375 -0.125,-0.109375 -0.078125,0 -0.109375,0.03125 -0.125,0.109375 -0.5625,1.859375 -1.671875,2.359375 -2.28125,2.359375 -0.46875,0 -0.6875,-0.3125 -0.6875,-0.90625 0,-0.8125 0.46875,-1.640625 1.046875,-2.34375 z m 0,0"
   id="id-1eb875ae-261c-421c-bf9b-c0d2c5698028" />
      </g></g>
    <g
   style="fill:#000000;fill-opacity:1"
   id="id-25cfb17d-e436-4d4b-b50b-efa0adf28a5f">
      <g
   transform="translate(156.963,136.259)"
   id="g427"><path
   style="stroke:none"
   d="m 2.1875,-4.625 c 0,-0.015625 0.015625,-0.109375 0.015625,-0.109375 0,-0.046875 -0.015625,-0.109375 -0.109375,-0.109375 -0.140625,0 -0.71875,0.0625 -0.890625,0.078125 -0.046875,0 -0.15625,0.015625 -0.15625,0.15625 0,0.09375 0.109375,0.09375 0.1875,0.09375 0.328125,0 0.328125,0.0625 0.328125,0.109375 0,0.046875 -0.015625,0.09375 -0.015625,0.15625 L 0.5625,-0.3125 c -0.046875,0.125 -0.046875,0.140625 -0.046875,0.15625 0,0.109375 0.09375,0.21875 0.25,0.21875 0.1875,0 0.265625,-0.125 0.3125,-0.28125 0.015625,-0.03125 0.3125,-1.265625 0.34375,-1.359375 0.5,0.046875 0.890625,0.21875 0.890625,0.578125 0,0.03125 0,0.0625 -0.015625,0.140625 -0.03125,0.09375 -0.03125,0.140625 -0.03125,0.21875 0,0.484375 0.40625,0.703125 0.75,0.703125 0.671875,0 0.875,-1.046875 0.875,-1.0625 0,-0.09375 -0.078125,-0.09375 -0.109375,-0.09375 -0.09375,0 -0.109375,0.046875 -0.140625,0.171875 C 3.5625,-0.625 3.375,-0.125 3.03125,-0.125 c -0.1875,0 -0.25,-0.171875 -0.25,-0.359375 0,-0.125 0,-0.140625 0.046875,-0.3125 0.015625,-0.03125 0.03125,-0.140625 0.03125,-0.21875 0,-0.625 -0.828125,-0.71875 -1.125,-0.734375 C 1.9375,-1.875 2.1875,-2.109375 2.3125,-2.21875 2.671875,-2.546875 3.015625,-2.875 3.40625,-2.875 c 0.078125,0 0.171875,0.015625 0.234375,0.09375 C 3.34375,-2.734375 3.28125,-2.5 3.28125,-2.390625 c 0,0.140625 0.109375,0.25 0.265625,0.25 0.203125,0 0.40625,-0.15625 0.40625,-0.4375 0,-0.234375 -0.171875,-0.5 -0.53125,-0.5 -0.40625,0 -0.765625,0.296875 -1.125,0.625 C 2,-2.1875 1.78125,-1.96875 1.484375,-1.84375 Z m 0,0"
   id="id-da859577-390e-43ae-8265-efda37f4e75d" />
      </g></g>
  </g>
</g></g></svg>
