<?xml version="1.0" encoding="UTF-8" standalone="no"?>
<!-- Created with Inkscape (http://www.inkscape.org/) -->

<svg
   width="210mm"
   height="297mm"
   viewBox="0 0 210 297"
   version="1.1"
   id="svg1"
   xml:space="preserve"
   inkscape:version="1.4 (1:1.4+202410161351+e7c3feb100)"
   sodipodi:docname="tf.svg"
   xmlns:inkscape="http://www.inkscape.org/namespaces/inkscape"
   xmlns:sodipodi="http://sodipodi.sourceforge.net/DTD/sodipodi-0.dtd"
   xmlns="http://www.w3.org/2000/svg"
   xmlns:svg="http://www.w3.org/2000/svg"
   xmlns:ns3="http://www.iki.fi/pav/software/textext/"><sodipodi:namedview
     id="namedview1"
     pagecolor="#ffffff"
     bordercolor="#999999"
     borderopacity="1"
     inkscape:showpageshadow="0"
     inkscape:pageopacity="0"
     inkscape:pagecheckerboard="0"
     inkscape:deskcolor="#d1d1d1"
     inkscape:document-units="mm"
     inkscape:zoom="1.1238492"
     inkscape:cx="194.4211"
     inkscape:cy="199.7599"
     inkscape:window-width="1854"
     inkscape:window-height="1011"
     inkscape:window-x="66"
     inkscape:window-y="32"
     inkscape:window-maximized="1"
     inkscape:current-layer="layer1" /><defs
     id="defs1"><inkscape:path-effect
       effect="bspline"
       id="path-effect2"
       is_visible="true"
       lpeversion="1.3"
       weight="33.333333"
       steps="2"
       helper_size="0"
       apply_no_weight="true"
       apply_with_weight="true"
       only_selected="false"
       uniform="false" /><inkscape:path-effect
       effect="bspline"
       id="path-effect1"
       is_visible="true"
       lpeversion="1.3"
       weight="33.333333"
       steps="2"
       helper_size="0"
       apply_no_weight="true"
       apply_with_weight="true"
       only_selected="false"
       uniform="false" /><g
       id="id-e40073d9-aa7d-4ac2-a571-1825198cc9b7-2">
      <symbol
   overflow="visible"
   id="id-c14c6995-86db-4c76-add3-1d02ff2c23ee-2">
        <path
   style="stroke:none"
   d=""
   id="id-01906bad-d560-4ad8-9ae9-6772ba8b4864-8" />
      </symbol>
      <symbol
   overflow="visible"
   id="id-8795f900-f6b0-4862-a668-a2793d70ecda-9">
        <path
   style="stroke:none"
   d="m 0.5625,-3.40625 c 0,2.0625 1.609375,3.625 3.46875,3.625 1.625,0 2.59375,-1.390625 2.59375,-2.546875 C 6.625,-2.421875 6.625,-2.5 6.5,-2.5 6.390625,-2.5 6.390625,-2.4375 6.375,-2.328125 6.296875,-0.90625 5.234375,-0.09375 4.140625,-0.09375 c -0.609375,0 -2.5625,-0.328125 -2.5625,-3.3125 0,-2.96875 1.953125,-3.3125 2.5625,-3.3125 1.078125,0 1.96875,0.90625 2.171875,2.359375 C 6.328125,-4.21875 6.328125,-4.1875 6.46875,-4.1875 6.625,-4.1875 6.625,-4.21875 6.625,-4.421875 V -6.78125 c 0,-0.171875 0,-0.25 -0.109375,-0.25 -0.03125,0 -0.078125,0 -0.15625,0.125 l -0.5,0.734375 C 5.5,-6.53125 4.984375,-7.03125 4.03125,-7.03125 c -1.875,0 -3.46875,1.59375 -3.46875,3.625 z m 0,0"
   id="id-31547d08-ed37-4971-8f9b-ca99d7146e58-7" />
      </symbol>
      <symbol
   overflow="visible"
   id="id-d09a8068-6e9e-425e-aae1-f4c4db2f99f9-3">
        <path
   style="stroke:none"
   d="m 7.1875,-3.375 c 0,-2.03125 -1.5,-3.65625 -3.3125,-3.65625 -1.796875,0 -3.3125,1.59375 -3.3125,3.65625 0,2.046875 1.53125,3.59375 3.3125,3.59375 1.8125,0 3.3125,-1.578125 3.3125,-3.59375 z M 3.875,-0.046875 c -0.953125,0 -2.296875,-0.875 -2.296875,-3.46875 0,-2.578125 1.46875,-3.265625 2.296875,-3.265625 0.859375,0 2.28125,0.703125 2.28125,3.265625 0,2.640625 -1.359375,3.46875 -2.28125,3.46875 z m 0,0"
   id="id-b528c531-1760-47f5-90a2-7831cbea2d3f-6" />
      </symbol>
      <symbol
   overflow="visible"
   id="id-868656e1-4a04-4b33-bb40-337f0a301187-1">
        <path
   style="stroke:none"
   d=""
   id="id-15d6dd19-26fe-4405-a5de-78067fe89d86-2" />
      </symbol>
      <symbol
   overflow="visible"
   id="id-9d37855d-6b40-4ca4-bf4d-398467703aab-9">
        <path
   style="stroke:none"
   d="M 3.515625,-1.265625 H 3.28125 c -0.015625,0.15625 -0.09375,0.5625 -0.1875,0.625 C 3.046875,-0.59375 2.515625,-0.59375 2.40625,-0.59375 H 1.125 c 0.734375,-0.640625 0.984375,-0.84375 1.390625,-1.171875 0.515625,-0.40625 1,-0.84375 1,-1.5 0,-0.84375 -0.734375,-1.359375 -1.625,-1.359375 -0.859375,0 -1.453125,0.609375 -1.453125,1.25 0,0.34375 0.296875,0.390625 0.375,0.390625 0.15625,0 0.359375,-0.125 0.359375,-0.375 0,-0.125 -0.046875,-0.375 -0.40625,-0.375 C 0.984375,-4.21875 1.453125,-4.375 1.78125,-4.375 c 0.703125,0 1.0625,0.546875 1.0625,1.109375 0,0.609375 -0.4375,1.078125 -0.65625,1.328125 L 0.515625,-0.265625 C 0.4375,-0.203125 0.4375,-0.1875 0.4375,0 h 2.875 z m 0,0"
   id="id-01ce82bf-c4dc-4ff8-a2b1-76daee792a67-3" />
      </symbol>
    </g></defs><g
     inkscape:label="Layer 1"
     inkscape:groupmode="layer"
     id="layer1"><path
       style="fill:none;stroke:#000000;stroke-width:0.152432px;stroke-linecap:butt;stroke-linejoin:miter;stroke-opacity:1"
       d="m 23.302226,35.024238 c -1.937913,2.694172 -4.112158,6.664532 -3.923068,11.013068 0.189091,4.348536 2.741413,9.075059 5.104744,9.878553 2.363331,0.803494 4.537533,-2.316012 5.577387,-5.482879 1.039855,-3.166867 0.945324,-6.380901 2.741475,-8.082485 1.796152,-1.701585 5.482841,-1.890646 8.318832,-3.544994 2.83599,-1.654348 4.821129,-4.773852 2.599554,-6.569972 -2.221575,-1.79612 -8.649645,-2.268772 -12.714554,-1.796096 -4.064909,0.472677 -5.766457,1.890634 -7.70437,4.584805 z"
       id="path1"
       inkscape:path-effect="#path-effect1"
       inkscape:original-d="m 23.538557,33.748051 c -2.174244,3.970359 -4.348488,7.94072 -6.522733,11.911078 2.552425,4.726713 5.104748,9.453235 7.657121,14.179854 2.174288,-3.11963 4.348489,-6.239136 6.522734,-9.358703 -0.09454,-3.214167 -0.189066,-6.428201 -0.283599,-9.642301 3.686836,-0.189068 7.373525,-0.378129 11.060287,-0.567195 1.985219,-3.119631 3.970359,-6.239134 5.955538,-9.358704 -6.42833,-0.47267 -12.8564,-0.945322 -19.284601,-1.417984 -1.701617,1.418013 -3.403165,2.835971 -5.104747,4.253955 z"
       transform="matrix(-0.31292655,-1.6910863,1.722607,-0.31875929,-18.356537,123.46499)"
       inkscape:export-filename="tf.png"
       inkscape:export-xdpi="1000"
       inkscape:export-ydpi="1000"
       sodipodi:nodetypes="ccccccccc" /><path
       style="fill:none;stroke:#000000;stroke-width:0.152432px;stroke-linecap:butt;stroke-linejoin:miter;stroke-opacity:1"
       d="m 24.672946,56.010422 c 3.497697,1.181654 6.995395,2.363309 10.871263,1.961527 3.875868,-0.401782 8.129741,-2.386923 10.965725,-4.986594 2.835985,-2.599672 4.253943,-5.813709 4.561165,-8.826956 0.307222,-3.013247 -0.496272,-5.825471 -1.985187,-7.834324 -1.488914,-2.008852 -3.663116,-3.214117 -5.837357,-4.419404"
       id="path2"
       inkscape:path-effect="#path-effect2"
       inkscape:original-d="m 24.672946,56.010422 c 3.497697,1.181655 6.995395,2.363309 10.493092,3.544963 4.254039,-1.985219 8.507912,-3.970359 12.761867,-5.955538 1.418013,-3.214164 2.835971,-6.428201 4.253958,-9.642301 -0.803542,-2.812394 -1.607036,-5.624618 -2.410578,-8.437011 -2.174287,-1.205313 -4.348489,-2.410577 -6.52273,-3.615864"
       sodipodi:nodetypes="cccccc"
       transform="matrix(-0.31292655,-1.6910863,1.722607,-0.31875929,-18.356537,123.46499)" /><path
       style="fill:#406ed9;fill-opacity:0.19;stroke:#426ad6;stroke-width:0;stroke-dasharray:none;stroke-dashoffset:0;paint-order:stroke fill markers"
       d="m 70.064032,64.332197 c -0.317411,1.85971 -2.360022,4.48327 -5.174142,6.645739 -5.225025,4.015091 -11.519614,5.889337 -17.695279,5.268858 C 43.95065,75.920868 40.381728,75.008405 37.015726,73.644369 29.549958,70.618949 26.881849,68.023 24.699013,61.660774 c -0.80384,-2.342921 -2.097037,-9.325578 -2.233612,-12.060483 -0.326559,-6.539052 0.509019,-10.334524 2.583223,-11.73389 1.233371,-0.832098 2.96291,-0.886003 4.959994,-0.154597 1.252209,0.458605 3.707147,2.175727 4.894798,3.423699 1.495958,1.571936 2.379334,2.899667 4.505327,6.771569 2.097976,3.82089 2.735398,4.807107 3.809225,5.893616 0.917588,0.928427 1.923948,1.528683 3.228139,1.925471 1.502412,0.457092 3.010407,0.620674 6.511792,0.706376 1.712992,0.04192 3.739851,0.123997 4.504129,0.182379 6.717638,0.513149 12.006109,3.170746 12.549029,6.306218 0.08137,0.469996 0.105221,1.104973 0.05298,1.411064 z"
       id="path14"
       sodipodi:nodetypes="ssssscsssssssssss" /><path
       style="fill:#fff8e1;fill-opacity:1;stroke:#426ad6;stroke-width:0;stroke-dasharray:none;stroke-dashoffset:0;paint-order:stroke fill markers"
       d="m 160.11533,81.371599 c -0.31741,1.85971 -2.36002,4.48327 -5.17415,6.645739 -5.22502,4.015091 -11.51962,5.889337 -17.69528,5.268858 -3.24397,-0.325926 -6.81289,-1.238389 -10.1789,-2.602425 -7.46579,-3.02542 -10.13391,-5.621369 -12.31676,-11.983595 -0.80385,-2.342921 -2.09705,-9.325578 -2.23363,-12.060483 -0.32656,-6.539052 0.50903,-10.334524 2.58324,-11.73389 1.23338,-0.832098 2.96293,-0.886003 4.96002,-0.154597 1.25222,0.458605 3.70717,2.175727 4.89482,3.423699 1.49596,1.571936 2.37934,2.899667 4.50533,6.771569 2.09798,3.82089 2.7354,4.807107 3.80923,5.893616 0.91759,0.928427 1.92395,1.528683 3.22814,1.925471 1.50241,0.457092 3.01041,0.620674 6.5118,0.706376 1.71299,0.04192 3.73985,0.123997 4.50413,0.182379 6.71764,0.513149 12.00611,3.170746 12.54903,6.306218 0.0814,0.469996 0.10522,1.104973 0.053,1.411064 z"
       id="path14-5"
       sodipodi:nodetypes="ssssscsssssssssss" /><path
       style="fill:#fff8e0;fill-opacity:1;stroke:#426ad6;stroke-width:0;stroke-dasharray:none;stroke-dashoffset:0;paint-order:stroke fill markers"
       d="m 71.222099,50.744632 c 0.153207,2.478172 -0.07565,6.387505 -0.5798,9.904169 l -0.242883,1.6942 -0.309156,-0.63037 c -0.958443,-1.954264 -3.700306,-3.649298 -7.570502,-4.680117 -2.675005,-0.712484 -4.410375,-0.892186 -9.98864,-1.03435 -4.427803,-0.112845 -6.279221,-0.501259 -7.967752,-1.671577 -1.47382,-1.021504 -2.467108,-2.396845 -4.759318,-6.589913 -2.736799,-5.006345 -4.174303,-6.882842 -6.731441,-8.787132 -1.328357,-0.989225 -3.481328,-1.956939 -4.72477,-2.123684 -1.232504,-0.165279 -2.777563,0.136808 -3.583643,0.700671 -0.333563,0.233329 -0.613556,0.385971 -0.62221,0.339204 -0.02587,-0.139798 0.863446,-2.351732 1.492254,-3.711585 2.052924,-4.439618 5.296998,-7.545417 9.912495,-9.489977 1.753796,-0.738892 6.444114,-1.572474 8.477687,-1.506685 8.149707,0.263647 15.214643,4.22068 20.906834,11.709802 1.882626,2.476939 3.668929,5.66825 4.693838,8.38575 0.564686,1.497234 1.496719,5.869433 1.597007,7.491596 z"
       id="path15"
       sodipodi:nodetypes="sscssssssssssssssss" /><path
       style="fill:#4269d6;fill-opacity:0.19196;stroke:#426ad6;stroke-width:0;stroke-dasharray:none;stroke-dashoffset:0;paint-order:stroke fill markers"
       d="m 169.05376,51.403305 c 0.15321,2.478172 -0.0756,6.387505 -0.5798,9.904169 l -0.24288,1.6942 -0.30916,-0.63037 c -0.95844,-1.954264 -3.70031,-3.649298 -7.57051,-4.680117 -2.675,-0.712484 -4.41037,-0.892186 -9.98864,-1.03435 -4.4278,-0.112845 -6.27923,-0.501259 -7.96776,-1.671577 -1.47382,-1.021504 -2.4671,-2.396845 -4.75932,-6.589913 -2.7368,-5.006345 -4.1743,-6.882842 -6.73144,-8.787132 -1.32836,-0.989225 -3.48133,-1.956939 -4.72477,-2.123684 -1.23251,-0.165279 -2.77757,0.136808 -3.58366,0.700671 -0.33356,0.233329 -0.61356,0.385971 -0.62221,0.339204 -0.0259,-0.139798 0.86345,-2.351732 1.49226,-3.711585 2.05293,-4.439618 5.297,-7.545417 9.9125,-9.489977 1.7538,-0.738892 6.44412,-1.572474 8.4777,-1.506685 8.14971,0.263647 15.21465,4.22068 20.90684,11.709802 1.88263,2.476939 3.66894,5.66825 4.69384,8.38575 0.56469,1.497234 1.49672,5.869433 1.59701,7.491596 z"
       id="path15-2"
       sodipodi:nodetypes="sscssssssssssssssss" /><g
       transform="matrix(1.05833,0,0,1.05833,38.912664,60.130707)"
       ns3:version="1.10.2"
       ns3:texconverter="pdflatex"
       ns3:pdfconverter="inkscape"
       ns3:text="Gas"
       ns3:preamble="/home/loq/.config/inkscape/extensions/textext/default_packages.tex"
       ns3:scale="3.0"
       ns3:alignment="middle center"
       ns3:stroke-to-path="0"
       ns3:inkscapeversion="1.4"
       ns3:jacobian_sqrt="1.05833"
       id="g10"><defs
   id="id-de96bf1f-ca58-41b6-8da2-aae8811ea05f">
    <g
   id="id-32d04b9e-7a5b-4da7-85a8-b9702a292be5">
      <g
   id="id-65a20a0c-0275-42b2-bf36-babbea9fa744">
        <path
   d="m 5.90625,-0.625 c 0.140625,0.21875 0.53125,0.609375 0.640625,0.609375 0.09375,0 0.09375,-0.078125 0.09375,-0.21875 V -1.96875 c 0,-0.390625 0.03125,-0.4375 0.6875,-0.4375 v -0.3125 c -0.375,0 -0.921875,0.03125 -1.21875,0.03125 -0.390625,0 -1.25,0 -1.609375,-0.03125 v 0.3125 H 4.828125 C 5.71875,-2.40625 5.75,-2.296875 5.75,-1.9375 v 0.640625 c 0,1.125 -1.265625,1.203125 -1.546875,1.203125 -0.640625,0 -2.625,-0.34375 -2.625,-3.3125 0,-2.984375 1.96875,-3.3125 2.5625,-3.3125 1.078125,0 1.984375,0.890625 2.171875,2.359375 0.03125,0.140625 0.03125,0.171875 0.171875,0.171875 0.15625,0 0.15625,-0.03125 0.15625,-0.234375 V -6.78125 c 0,-0.171875 0,-0.25 -0.109375,-0.25 -0.046875,0 -0.078125,0 -0.15625,0.125 l -0.5,0.734375 C 5.546875,-6.484375 5.015625,-7.03125 4.03125,-7.03125 c -1.859375,0 -3.46875,1.578125 -3.46875,3.625 0,2.046875 1.59375,3.625 3.484375,3.625 0.734375,0 1.53125,-0.265625 1.859375,-0.84375 z m 0,0"
   id="id-342c9197-13f9-4f56-91bc-63c198068889" />
      </g>
      <g
   id="id-04124b24-14a3-4d55-ae3d-406640708b37">
        <path
   d="m 3.3125,-0.75 c 0.046875,0.390625 0.3125,0.8125 0.78125,0.8125 0.21875,0 0.828125,-0.140625 0.828125,-0.953125 v -0.5625 h -0.25 v 0.5625 c 0,0.578125 -0.25,0.640625 -0.359375,0.640625 -0.328125,0 -0.375,-0.453125 -0.375,-0.5 v -1.984375 c 0,-0.421875 0,-0.8125 -0.359375,-1.1875 C 3.1875,-4.3125 2.6875,-4.46875 2.21875,-4.46875 c -0.828125,0 -1.515625,0.46875 -1.515625,1.125 0,0.296875 0.203125,0.46875 0.46875,0.46875 0.28125,0 0.453125,-0.203125 0.453125,-0.453125 0,-0.125 -0.046875,-0.453125 -0.515625,-0.453125 C 1.390625,-4.140625 1.875,-4.25 2.1875,-4.25 c 0.5,0 1.0625,0.390625 1.0625,1.28125 v 0.359375 c -0.515625,0.03125 -1.203125,0.0625 -1.828125,0.359375 -0.75,0.34375 -1,0.859375 -1,1.296875 0,0.8125 0.96875,1.0625 1.59375,1.0625 0.65625,0 1.109375,-0.40625 1.296875,-0.859375 z M 3.25,-2.390625 v 1 c 0,0.9375 -0.71875,1.28125 -1.171875,1.28125 -0.484375,0 -0.890625,-0.34375 -0.890625,-0.84375 0,-0.546875 0.421875,-1.375 2.0625,-1.4375 z m 0,0"
   id="id-ebddf15c-6cf8-4ccd-8c9a-fd66e4db62c0" />
      </g>
      <g
   id="id-75b0526f-8f40-4648-88f2-a34c9960b0fa">
        <path
   d="m 2.078125,-1.9375 c 0.21875,0.046875 1.03125,0.203125 1.03125,0.921875 0,0.5 -0.34375,0.90625 -1.125,0.90625 -0.84375,0 -1.203125,-0.5625 -1.390625,-1.421875 C 0.5625,-1.65625 0.5625,-1.6875 0.453125,-1.6875 c -0.125,0 -0.125,0.0625 -0.125,0.234375 V -0.125 c 0,0.171875 0,0.234375 0.109375,0.234375 0.046875,0 0.0625,-0.015625 0.25,-0.203125 0.015625,-0.015625 0.015625,-0.03125 0.203125,-0.21875 0.4375,0.40625 0.890625,0.421875 1.09375,0.421875 1.140625,0 1.609375,-0.671875 1.609375,-1.390625 0,-0.515625 -0.296875,-0.828125 -0.421875,-0.9375 C 2.84375,-2.546875 2.453125,-2.625 2.03125,-2.703125 1.46875,-2.8125 0.8125,-2.9375 0.8125,-3.515625 c 0,-0.359375 0.25,-0.765625 1.109375,-0.765625 1.09375,0 1.15625,0.90625 1.171875,1.203125 0,0.09375 0.09375,0.09375 0.109375,0.09375 0.140625,0 0.140625,-0.046875 0.140625,-0.234375 v -1.015625 c 0,-0.15625 0,-0.234375 -0.109375,-0.234375 -0.046875,0 -0.078125,0 -0.203125,0.125 -0.03125,0.03125 -0.125,0.125 -0.171875,0.15625 -0.375,-0.28125 -0.78125,-0.28125 -0.9375,-0.28125 -1.21875,0 -1.59375,0.671875 -1.59375,1.234375 0,0.34375 0.15625,0.625 0.421875,0.84375 0.328125,0.25 0.609375,0.3125 1.328125,0.453125 z m 0,0"
   id="id-70fab557-fa7d-459d-bb52-c2362012f6db" />
      </g>
    </g>
  </defs>
  <g
   fill="#000000"
   fill-opacity="1"
   id="id-1dd2f1a2-2bb2-433a-9d01-8269017d1163"
   transform="translate(-149.275,-127.734)">
    <g
   transform="translate(148.712,134.765)"
   id="g7"><path
   d="m 5.90625,-0.625 c 0.140625,0.21875 0.53125,0.609375 0.640625,0.609375 0.09375,0 0.09375,-0.078125 0.09375,-0.21875 V -1.96875 c 0,-0.390625 0.03125,-0.4375 0.6875,-0.4375 v -0.3125 c -0.375,0 -0.921875,0.03125 -1.21875,0.03125 -0.390625,0 -1.25,0 -1.609375,-0.03125 v 0.3125 H 4.828125 C 5.71875,-2.40625 5.75,-2.296875 5.75,-1.9375 v 0.640625 c 0,1.125 -1.265625,1.203125 -1.546875,1.203125 -0.640625,0 -2.625,-0.34375 -2.625,-3.3125 0,-2.984375 1.96875,-3.3125 2.5625,-3.3125 1.078125,0 1.984375,0.890625 2.171875,2.359375 0.03125,0.140625 0.03125,0.171875 0.171875,0.171875 0.15625,0 0.15625,-0.03125 0.15625,-0.234375 V -6.78125 c 0,-0.171875 0,-0.25 -0.109375,-0.25 -0.046875,0 -0.078125,0 -0.15625,0.125 l -0.5,0.734375 C 5.546875,-6.484375 5.015625,-7.03125 4.03125,-7.03125 c -1.859375,0 -3.46875,1.578125 -3.46875,3.625 0,2.046875 1.59375,3.625 3.484375,3.625 0.734375,0 1.53125,-0.265625 1.859375,-0.84375 z m 0,0"
   id="id-c3689127-d528-4de7-be28-cd249ffd0d2b" />
      </g><g
   transform="translate(156.53,134.765)"
   id="g8"><path
   d="m 3.3125,-0.75 c 0.046875,0.390625 0.3125,0.8125 0.78125,0.8125 0.21875,0 0.828125,-0.140625 0.828125,-0.953125 v -0.5625 h -0.25 v 0.5625 c 0,0.578125 -0.25,0.640625 -0.359375,0.640625 -0.328125,0 -0.375,-0.453125 -0.375,-0.5 v -1.984375 c 0,-0.421875 0,-0.8125 -0.359375,-1.1875 C 3.1875,-4.3125 2.6875,-4.46875 2.21875,-4.46875 c -0.828125,0 -1.515625,0.46875 -1.515625,1.125 0,0.296875 0.203125,0.46875 0.46875,0.46875 0.28125,0 0.453125,-0.203125 0.453125,-0.453125 0,-0.125 -0.046875,-0.453125 -0.515625,-0.453125 C 1.390625,-4.140625 1.875,-4.25 2.1875,-4.25 c 0.5,0 1.0625,0.390625 1.0625,1.28125 v 0.359375 c -0.515625,0.03125 -1.203125,0.0625 -1.828125,0.359375 -0.75,0.34375 -1,0.859375 -1,1.296875 0,0.8125 0.96875,1.0625 1.59375,1.0625 0.65625,0 1.109375,-0.40625 1.296875,-0.859375 z M 3.25,-2.390625 v 1 c 0,0.9375 -0.71875,1.28125 -1.171875,1.28125 -0.484375,0 -0.890625,-0.34375 -0.890625,-0.84375 0,-0.546875 0.421875,-1.375 2.0625,-1.4375 z m 0,0"
   id="id-fea5fa2e-9884-499c-bad0-d4e12c4d6e67" />
      </g><g
   transform="translate(161.511,134.765)"
   id="g9"><path
   d="m 2.078125,-1.9375 c 0.21875,0.046875 1.03125,0.203125 1.03125,0.921875 0,0.5 -0.34375,0.90625 -1.125,0.90625 -0.84375,0 -1.203125,-0.5625 -1.390625,-1.421875 C 0.5625,-1.65625 0.5625,-1.6875 0.453125,-1.6875 c -0.125,0 -0.125,0.0625 -0.125,0.234375 V -0.125 c 0,0.171875 0,0.234375 0.109375,0.234375 0.046875,0 0.0625,-0.015625 0.25,-0.203125 0.015625,-0.015625 0.015625,-0.03125 0.203125,-0.21875 0.4375,0.40625 0.890625,0.421875 1.09375,0.421875 1.140625,0 1.609375,-0.671875 1.609375,-1.390625 0,-0.515625 -0.296875,-0.828125 -0.421875,-0.9375 C 2.84375,-2.546875 2.453125,-2.625 2.03125,-2.703125 1.46875,-2.8125 0.8125,-2.9375 0.8125,-3.515625 c 0,-0.359375 0.25,-0.765625 1.109375,-0.765625 1.09375,0 1.15625,0.90625 1.171875,1.203125 0,0.09375 0.09375,0.09375 0.109375,0.09375 0.140625,0 0.140625,-0.046875 0.140625,-0.234375 v -1.015625 c 0,-0.15625 0,-0.234375 -0.109375,-0.234375 -0.046875,0 -0.078125,0 -0.203125,0.125 -0.03125,0.03125 -0.125,0.125 -0.171875,0.15625 -0.375,-0.28125 -0.78125,-0.28125 -0.9375,-0.28125 -1.21875,0 -1.59375,0.671875 -1.59375,1.234375 0,0.34375 0.15625,0.625 0.421875,0.84375 0.328125,0.25 0.609375,0.3125 1.328125,0.453125 z m 0,0"
   id="id-bab32457-d54d-40b5-aad8-d71ddf7bb94f" />
      </g></g>
</g><g
       transform="matrix(1.05833,0,0,1.05833,39.457132,31.939223)"
       ns3:version="1.10.2"
       ns3:texconverter="pdflatex"
       ns3:pdfconverter="inkscape"
       ns3:text="$\\text{H}_2\\text{O}$"
       ns3:preamble="/home/loq/.config/inkscape/extensions/textext/default_packages.tex"
       ns3:scale="3.0"
       ns3:alignment="middle center"
       ns3:stroke-to-path="0"
       ns3:inkscapeversion="1.4"
       ns3:jacobian_sqrt="1.05833"
       id="g14"><defs
   id="id-5d8705aa-7f93-49fc-9d81-52f37685b064">
    <g
   id="id-9397d943-abdf-455e-82c4-bbca41ee0615">
      <g
   id="id-3bcf997b-5384-4b0c-a562-738be703d3aa">
        <path
   d="M 6.109375,-6.03125 C 6.109375,-6.390625 6.125,-6.5 6.890625,-6.5 h 0.25 v -0.3125 c -0.359375,0.03125 -1.09375,0.03125 -1.46875,0.03125 -0.375,0 -1.125,0 -1.46875,-0.03125 V -6.5 H 4.4375 c 0.765625,0 0.78125,0.109375 0.78125,0.46875 v 2.328125 H 2.25 V -6.03125 C 2.25,-6.390625 2.265625,-6.5 3.03125,-6.5 h 0.234375 v -0.3125 c -0.34375,0.03125 -1.078125,0.03125 -1.46875,0.03125 -0.375,0 -1.125,0 -1.46875,-0.03125 V -6.5 H 0.5625 c 0.765625,0 0.796875,0.109375 0.796875,0.46875 v 5.25 c 0,0.359375 -0.03125,0.46875 -0.796875,0.46875 H 0.328125 V 0 c 0.34375,-0.03125 1.09375,-0.03125 1.46875,-0.03125 0.375,0 1.125,0 1.46875,0.03125 V -0.3125 H 3.03125 C 2.265625,-0.3125 2.25,-0.421875 2.25,-0.78125 v -2.609375 h 2.96875 v 2.609375 c 0,0.359375 -0.015625,0.46875 -0.78125,0.46875 H 4.203125 V 0 c 0.34375,-0.03125 1.078125,-0.03125 1.453125,-0.03125 0.390625,0 1.125,0 1.484375,0.03125 v -0.3125 h -0.25 c -0.765625,0 -0.78125,-0.109375 -0.78125,-0.46875 z m 0,0"
   id="id-d6641483-2b4f-49ed-ac36-1e632588f0ed" />
      </g>
      <g
   id="id-b8f22bc8-07e6-454f-9569-bd0dad420525">
        <path
   d="m 7.1875,-3.375 c 0,-2.03125 -1.5,-3.65625 -3.3125,-3.65625 -1.796875,0 -3.3125,1.59375 -3.3125,3.65625 0,2.046875 1.53125,3.59375 3.3125,3.59375 1.8125,0 3.3125,-1.578125 3.3125,-3.59375 z M 3.875,-0.046875 c -0.953125,0 -2.296875,-0.875 -2.296875,-3.46875 0,-2.578125 1.46875,-3.265625 2.296875,-3.265625 0.859375,0 2.28125,0.703125 2.28125,3.265625 0,2.640625 -1.359375,3.46875 -2.28125,3.46875 z m 0,0"
   id="id-e2dbd382-a1b9-4f74-84b3-4da7d374a1a9" />
      </g>
      <g
   id="id-550879dc-b7cb-4b5a-9c5b-f63c80807abe">
        <path
   d="M 3.515625,-1.265625 H 3.28125 c -0.015625,0.15625 -0.09375,0.5625 -0.1875,0.625 C 3.046875,-0.59375 2.515625,-0.59375 2.40625,-0.59375 H 1.125 c 0.734375,-0.640625 0.984375,-0.84375 1.390625,-1.171875 0.515625,-0.40625 1,-0.84375 1,-1.5 0,-0.84375 -0.734375,-1.359375 -1.625,-1.359375 -0.859375,0 -1.453125,0.609375 -1.453125,1.25 0,0.34375 0.296875,0.390625 0.375,0.390625 0.15625,0 0.359375,-0.125 0.359375,-0.375 0,-0.125 -0.046875,-0.375 -0.40625,-0.375 C 0.984375,-4.21875 1.453125,-4.375 1.78125,-4.375 c 0.703125,0 1.0625,0.546875 1.0625,1.109375 0,0.609375 -0.4375,1.078125 -0.65625,1.328125 L 0.515625,-0.265625 C 0.4375,-0.203125 0.4375,-0.1875 0.4375,0 h 2.875 z m 0,0"
   id="id-bcb85b3f-4885-4ef3-b64d-9bd2f603aac3" />
      </g>
    </g>
  </defs>
  <g
   fill="#000000"
   fill-opacity="1"
   id="id-ff0a132a-b03e-40c8-8877-66a99a7014c3"
   transform="translate(-149.04,-127.734)">
    <g
   transform="translate(148.712,134.765)"
   id="g11"><path
   d="M 6.109375,-6.03125 C 6.109375,-6.390625 6.125,-6.5 6.890625,-6.5 h 0.25 v -0.3125 c -0.359375,0.03125 -1.09375,0.03125 -1.46875,0.03125 -0.375,0 -1.125,0 -1.46875,-0.03125 V -6.5 H 4.4375 c 0.765625,0 0.78125,0.109375 0.78125,0.46875 v 2.328125 H 2.25 V -6.03125 C 2.25,-6.390625 2.265625,-6.5 3.03125,-6.5 h 0.234375 v -0.3125 c -0.34375,0.03125 -1.078125,0.03125 -1.46875,0.03125 -0.375,0 -1.125,0 -1.46875,-0.03125 V -6.5 H 0.5625 c 0.765625,0 0.796875,0.109375 0.796875,0.46875 v 5.25 c 0,0.359375 -0.03125,0.46875 -0.796875,0.46875 H 0.328125 V 0 c 0.34375,-0.03125 1.09375,-0.03125 1.46875,-0.03125 0.375,0 1.125,0 1.46875,0.03125 V -0.3125 H 3.03125 C 2.265625,-0.3125 2.25,-0.421875 2.25,-0.78125 v -2.609375 h 2.96875 v 2.609375 c 0,0.359375 -0.015625,0.46875 -0.78125,0.46875 H 4.203125 V 0 c 0.34375,-0.03125 1.078125,-0.03125 1.453125,-0.03125 0.390625,0 1.125,0 1.484375,0.03125 v -0.3125 h -0.25 c -0.765625,0 -0.78125,-0.109375 -0.78125,-0.46875 z m 0,0"
   id="id-9e3e5d70-ef46-40a9-ad2b-6d0c68850203" />
      </g></g>
  <g
   fill="#000000"
   fill-opacity="1"
   id="id-8e9ee1ec-fb70-4ca8-8d90-bbb50f42ec15"
   transform="translate(-149.04,-127.734)">
    <g
   transform="translate(156.184,136.259)"
   id="g12"><path
   d="M 3.515625,-1.265625 H 3.28125 c -0.015625,0.15625 -0.09375,0.5625 -0.1875,0.625 C 3.046875,-0.59375 2.515625,-0.59375 2.40625,-0.59375 H 1.125 c 0.734375,-0.640625 0.984375,-0.84375 1.390625,-1.171875 0.515625,-0.40625 1,-0.84375 1,-1.5 0,-0.84375 -0.734375,-1.359375 -1.625,-1.359375 -0.859375,0 -1.453125,0.609375 -1.453125,1.25 0,0.34375 0.296875,0.390625 0.375,0.390625 0.15625,0 0.359375,-0.125 0.359375,-0.375 0,-0.125 -0.046875,-0.375 -0.40625,-0.375 C 0.984375,-4.21875 1.453125,-4.375 1.78125,-4.375 c 0.703125,0 1.0625,0.546875 1.0625,1.109375 0,0.609375 -0.4375,1.078125 -0.65625,1.328125 L 0.515625,-0.265625 C 0.4375,-0.203125 0.4375,-0.1875 0.4375,0 h 2.875 z m 0,0"
   id="id-5c869584-eb81-4bc6-801d-2330f796268f" />
      </g></g>
  <g
   fill="#000000"
   fill-opacity="1"
   id="id-b1a04141-eac2-4974-979d-c04282be5a15"
   transform="translate(-149.04,-127.734)">
    <g
   transform="translate(160.654,134.765)"
   id="g13"><path
   d="m 7.1875,-3.375 c 0,-2.03125 -1.5,-3.65625 -3.3125,-3.65625 -1.796875,0 -3.3125,1.59375 -3.3125,3.65625 0,2.046875 1.53125,3.59375 3.3125,3.59375 1.8125,0 3.3125,-1.578125 3.3125,-3.59375 z M 3.875,-0.046875 c -0.953125,0 -2.296875,-0.875 -2.296875,-3.46875 0,-2.578125 1.46875,-3.265625 2.296875,-3.265625 0.859375,0 2.28125,0.703125 2.28125,3.265625 0,2.640625 -1.359375,3.46875 -2.28125,3.46875 z m 0,0"
   id="id-13f12e48-8e74-45d3-bb84-eb5b53acc82e" />
      </g></g>
</g></g></svg>
